<?xml version="1.0" standalone="no"?>
<!DOCTYPE svg PUBLIC "-//W3C//DTD SVG 20010904//EN"
 "http://www.w3.org/TR/2001/REC-SVG-20010904/DTD/svg10.dtd">
<svg version="1.0" xmlns="http://www.w3.org/2000/svg"
 width="80.000000pt" height="80.000000pt" viewBox="0 0 80.000000 80.000000"
 preserveAspectRatio="xMidYMid meet">

<g transform="translate(0.000000,80.000000) scale(0.100000,-0.100000)"
fill="#000000" stroke="none">
<path d="M30 400 c-15 -15 -20 -33 -20 -70 0 -62 23 -90 75 -90 l35 0 0 90 0
90 -35 0 c-22 0 -43 -8 -55 -20z m80 -70 l0 -80 -27 0 c-42 0 -63 26 -63 78 0
54 21 82 62 82 l28 0 0 -80z"/>
<path d="M680 330 c0 -89 0 -90 25 -90 22 0 25 -4 27 -42 l1 -43 4 40 c3 25
13 47 29 62 19 18 24 32 24 73 0 62 -23 90 -75 90 l-35 0 0 -90z m82 63 c12
-11 18 -30 18 -61 0 -54 -21 -82 -62 -82 l-28 0 0 80 0 80 27 0 c14 0 35 -7
45 -17z"/>
<path d="M701 120 c-13 -11 -19 -20 -14 -20 6 0 18 9 28 20 23 25 17 25 -14 0z"/>
<path d="M434 105 c-3 -8 -3 -19 1 -25 8 -13 52 -13 60 0 3 6 45 11 93 12 l87
2 -85 3 c-47 2 -89 8 -94 13 -15 15 -56 12 -62 -5z"/>
</g>
</svg>
